<svg xmlns="http://www.w3.org/2000/svg" width="581" height="484" viewBox="0 0 581 484">
    <defs>
        <linearGradient id="a" x1="50.459%" x2="50.459%" y1="63.093%" y2="37.093%">
            <stop offset="0%" stop-color="gray" stop-opacity=".25"/>
            <stop offset="54%" stop-color="gray" stop-opacity=".12"/>
            <stop offset="100%" stop-color="gray" stop-opacity=".1"/>
        </linearGradient>
        <linearGradient id="b" x1="50.003%" x2="50.003%" y1="99.987%" y2="0%">
            <stop offset="0%" stop-color="gray" stop-opacity=".25"/>
            <stop offset="54%" stop-color="gray" stop-opacity=".12"/>
            <stop offset="100%" stop-color="gray" stop-opacity=".1"/>
        </linearGradient>
    </defs>
    <g fill="none" fill-rule="evenodd">
        <path fill="#31EAF1" fill-rule="nonzero" d="M337.566 64.137c-37.247-1.295-72.72-13.322-106.595-26.483C197.096 24.492 163.544 9.909 127.19 2.937c-23.383-4.485-50.127-5.118-68.964 7.421-18.134 12.09-23.992 32.903-27.14 52.236-2.372 14.543-3.764 29.851 2.727 43.461 4.512 9.454 12.512 17.399 18.048 26.455 19.263 31.504 5.646 70.354-15.222 101.115-9.783 14.433-21.15 28.21-28.706 43.559-7.557 15.349-11.05 32.96-4.437 48.632 6.549 15.544 22.162 27.197 39.077 35.4 34.352 16.668 74.816 21.435 114.301 24.135 87.38 5.982 175.22 3.391 262.829.8 32.424-.961 64.986-1.934 96.88-6.949 17.715-2.786 35.999-7.202 48.861-17.876 16.322-13.547 20.367-36.483 9.427-53.473-18.347-28.493-69.06-35.568-81.9-66.145-7.056-16.834.19-35.58 10.45-51.194 22.008-33.484 58.892-62.863 60.832-101.137 1.335-26.288-16.396-52.616-43.813-65.057-28.736-13.035-68.59-11.4-89.78 10.184-21.84 22.223-60.203 30.773-93.094 29.633z" opacity=".1"/>
        <ellipse cx="278" cy="449.5" fill="#31EAF1" fill-rule="nonzero" opacity=".1" rx="175" ry="23.5"/>
        <rect width="5" height="42" x="369" y="167" fill="#3A3768" fill-rule="nonzero" rx="2.29"/>
        <rect width="3" height="14" x="200" y="134" fill="#3A3768" fill-rule="nonzero" rx="1.5"/>
        <rect width="4" height="24" x="199" y="160" fill="#3A3768" fill-rule="nonzero" rx="2"/>
        <rect width="3" height="25" x="200" y="192" fill="#3A3768" fill-rule="nonzero" rx="1.5"/>
        <rect width="171" height="347" x="202" y="89" fill="#3A3768" fill-rule="nonzero" rx="20.99"/>
        <path fill="#1FDFDD" fill-rule="nonzero" d="M348.5 97h-19.498v2.356c0 2.963-1.171 5.803-3.257 7.898a11.088 11.088 0 0 1-7.862 3.268h-62.01a11.088 11.088 0 0 1-7.863-3.268 11.192 11.192 0 0 1-3.257-7.898V97H226.5c-7.456 0-13.5 6.072-13.5 13.562v301.876c0 3.597 1.422 7.046 3.954 9.59A13.468 13.468 0 0 0 226.5 426h122c7.456 0 13.5-6.072 13.5-13.562V110.585a13.594 13.594 0 0 0-3.946-9.605A13.468 13.468 0 0 0 348.5 97z"/>
        <rect width="24" height="5" x="271" y="99" fill="#E6E8EC" fill-rule="nonzero" rx="2.5"/>
        <circle cx="300.5" cy="101.5" r="2.5" fill="#E6E8EC" fill-rule="nonzero"/>
        <ellipse cx="497.5" cy="445.5" fill="#31EAF1" fill-rule="nonzero" opacity=".1" rx="15.5" ry="2.5"/>
        <ellipse cx="52.5" cy="467.5" fill="#31EAF1" fill-rule="nonzero" opacity=".1" rx="15.5" ry="2.5"/>
        <ellipse cx="112.5" cy="481.5" fill="#31EAF1" fill-rule="nonzero" opacity=".1" rx="15.5" ry="2.5"/>
        <path fill="url(#a)" fill-rule="nonzero" d="M162 256.37a.792.792 0 0 0 1 .14 3.267 3.267 0 0 1-1-.14z"/>
        <path fill="url(#b)" fill-rule="nonzero" d="M230.726 141.288c-1.209-.356-2.927-.937-5.007-1.667a26.956 26.956 0 0 0 4.64-9.502l-.177.07c.057-.214.12-.42.178-.633-3.976 1.644-8.382-1.15-11.183-4.72-2.802-3.57-4.71-8.013-7.775-11.306a35.957 35.957 0 0 0-4.119-3.605c-.905-.712-1.884-1.454-2.99-1.488-1.788-.052-3.191 1.724-4.916 2.259a6.635 6.635 0 0 1-3.437-.127c-4.451-1.04-8.742-2.954-13.262-3.449a15.277 15.277 0 0 0-7.196.822c-2.292.886-3.323 2.639-5.156 4.024-1.988 1.506-5.947 1.472-8.29 1.725-2.84.327-5.7.448-8.559.362-1.643-.15-3.299-.088-4.927.184-3.403.758-6.135 3.506-8.685 6.15a4.6 4.6 0 0 0-1.438 2.3 3.063 3.063 0 0 0 0 .758c-.026.688.091 1.373.344 2.012a26.715 26.715 0 0 0 3.266 6.703c1.042 1.517 2.251 2.943 2.864 4.736.281.883.43 1.804.441 2.73a21.01 21.01 0 0 1-.303 2.938 37.461 37.461 0 0 1-2.206 7.812c-.539 1.334-1.146 2.662-1.29 4.122a7.463 7.463 0 0 0 0 .873c-.171 4.501 4.303 7.749 5.157 12.227.068.37.11.745.126 1.12-.097 2.794-1.661 5.525-3.964 6.606.2.08.406.149.613.224a6.433 6.433 0 0 1-.613.345c.418.16.847.299 1.283.425a30.23 30.23 0 0 0-6.537 8.151c-7.711 14.675-60.268 43.463-60.268 43.463s.298.166.779.454c-.195.12-.401.259-.63.414-4.55 3.08-15.228 12.071-5.575 23.407 0 0 7.534-12.1 12.81-17.245.24-.23.47-.443.693-.644.239.367.314.817.207 1.242l34.562-19.757s12.283-8.749 15.71-10.726c1.18-.679 4.187-2.564 7.785-3.398l-.401.179a15.505 15.505 0 0 1 3.964-.575c6.119.097 12.741 4.656 14.93 22.711 2.927 24.177 1.57 28.535.63 29.132a1.645 1.645 0 0 1-.344-.063c.028.027.059.05.092.07a1.656 1.656 0 0 1-.378-.07.526.526 0 0 0 .504.127.491.491 0 0 0 .384-.046h.464c0 .218-.035.448-.052.672-.046 0-.275.132 0 .15a48.907 48.907 0 0 0 0 4.397c-3.042.173-6.078.357-8.742.523l.24-1.282.11-.574c2.331-.19 4.548-.886 4.806-2.817.573-4.23-5.156-6.49-9.997-6.772-4.841-.281-33.99 1.696-33.99 1.696s-4.371 5.748 9.487 7.536c.413.219.842.46 1.278.713 5.425 3.15 12.793 8.944 16.316 11.801l.493.397-1.582 1.282c8.594 1.977 16.855 35.283 21.42 50.521 4.567 15.239 14.57 14.676 22.854 12.422 7.762-2.12 8.753-25.05 8.845-27.93v-.294l13.801 17.308 1.048 1.317c.407.212.802.413 1.192.603 10.455 5.064 22.005-4.639 18.716-15.675-3.317-11.152-8.473-27.632-11.91-34.6-2.864-5.834-6.594-15.52-8.851-21.601.292-.121.577-.26.853-.414l-.143-.77.143-.075s-3.322-17.561-3.506-30.03v-.654-.409c2.498-.574 4.08-.804 4.08-.804l.045-.54-.292.063 1.386-16.176s5.1-11.031 1.198-15.63a9.786 9.786 0 0 1-2.292-4.776c-.653-4.231 0-11.273 9.092-17.13C233.568 156.562 239 149.22 239 149.22s.297-5.392-8.274-7.933zm-27.797 11.22v-7.472c2.596-.127 5.248.178 7.855 0a19.744 19.744 0 0 0 3.792-.644l.63.443a69.123 69.123 0 0 1-12.277 7.674zm-39.678 117.156c1.025.725 2.056 1.478 3.07 2.23.63 3.685 1.186 6.29 1.226 6.467a51.944 51.944 0 0 0-4.296-8.697z"/>
        <path fill="#FFBDC6" fill-rule="nonzero" d="M186 266l-.624 3.46-.48 2.646-.873 4.842-8.462 6.052s-.763-.667-2.023-1.718c-3.469-2.917-10.758-8.858-16.11-12.046A17.853 17.853 0 0 0 153 267.15L186 266z"/>
        <path fill="#000" fill-rule="nonzero" d="M186 266l-.624 3.955a22.697 22.697 0 0 1-5.584-.338l-19.746.33a51.708 51.708 0 0 1-2.618-.249 16.953 16.953 0 0 0-4.428-2.382L186 266z" opacity=".1"/>
        <path fill="#474463" fill-rule="nonzero" d="M179.544 268.652s9.839 1.753 10.415-2.61c.577-4.362-5.066-6.72-9.845-7.013-4.778-.293-33.471 1.753-33.471 1.753s-5.06 7.008 13.217 8.181l19.684-.311z"/>
        <path fill="#000" fill-rule="nonzero" d="M186 266l-.624 3.46-.48 2.646-.873 4.842-8.462 6.052s-.763-.667-2.023-1.718c-3.469-2.917-10.758-8.858-16.11-12.046A17.853 17.853 0 0 0 153 267.15L186 266z" opacity=".1"/>
        <path fill="#000" fill-rule="nonzero" d="M186 266l-.624 3.955a22.697 22.697 0 0 1-5.584-.338l-19.746.33a51.708 51.708 0 0 1-2.618-.249 16.953 16.953 0 0 0-4.428-2.382L186 266z" opacity=".1"/>
        <path fill="#000" fill-rule="nonzero" d="M179.55 268.656s9.846 1.745 10.41-2.63c.566-4.374-5.066-6.704-9.845-6.997-4.778-.293-33.472 1.75-33.472 1.75s-5.061 6.999 13.217 8.164l19.69-.287z" opacity=".1"/>
        <path fill="#474463" fill-rule="nonzero" d="M150 130h51v61h-51z"/>
        <path fill="#000" fill-rule="nonzero" d="M150 130h51v61h-51z" opacity=".1"/>
        <path fill="#FFBDC6" fill-rule="nonzero" d="M89 234.18c-.821.218-1.871 1.054-3.04 2.266C80.934 241.691 73.733 254 73.733 254c-9.206-11.555.983-20.685 5.324-23.823 1.056-.76 1.765-1.177 1.765-1.177L89 234.18zM184.788 149s2.484 17.697 11.048 21.91c8.563 4.215-11.048 12.09-11.048 12.09L158 172.88s15.19-5.06 12.152-19.948L184.788 149zM156 255l-.618 3.45-.503 2.658-.872 4.843-8.456 6.049s-.763-.662-2.022-1.713c-3.466-2.918-10.75-8.86-16.104-12.05a17.724 17.724 0 0 0-4.425-2.085L156 255z"/>
        <path fill="#000" fill-rule="nonzero" d="M156 255l-.618 3.954a22.622 22.622 0 0 1-5.584-.338l-19.746.332c-.93-.068-1.81-.15-2.624-.25a16.832 16.832 0 0 0-4.428-2.391L156 255z" opacity=".1"/>
        <path fill="#474463" fill-rule="nonzero" d="M149.556 257.656s9.846 1.745 10.405-2.624c.56-4.368-5.061-6.71-9.846-7.003-4.785-.293-33.47 1.75-33.47 1.75s-5.068 6.998 13.218 8.17l19.693-.293z"/>
        <path fill="#000" fill-rule="nonzero" d="M154 262.2l-.845 4.802-8.196 5.998s-.739-.656-1.959-1.699L153.838 262l.162.2z" opacity=".1"/>
        <path fill="#474463" fill-rule="nonzero" d="M210.028 325.855c-.386-.19-.772-.385-1.152-.575l-1.037-1.304-13.596-17.207v.299c-.092 2.873-1.071 25.643-8.707 27.747-8.149 2.24-17.979 2.804-22.46-12.34-4.48-15.143-12.668-48.234-21.076-50.2l12.508-10.235s8.281 9.666 11.656 18.92c-.127-.576-5.846-27.242-1.152-31.96h41.03s6.335 18.005 10.677 26.925c3.38 6.925 8.454 23.298 11.72 34.379 3.236 10.942-8.126 20.603-18.411 15.55z"/>
        <path fill="#000" fill-rule="nonzero" d="M209 253.546c-6.367 3.769-34.32 2.235-43.414 1.621l-2.477-.18c-.267 0 .04-.15.04-.15l.255-2.564 6.778-17.226L206.476 214c-.735 2.217-.978 5.609-.92 9.493.168 12.48 3.444 30.053 3.444 30.053z" opacity=".1"/>
        <path fill="#F2F1F2" fill-rule="nonzero" d="M209 253.545c-6.326 3.77-34.096 2.236-43.13 1.622l-2.462-.174-.408-.035.449-.116 2.22-.579 4.767-19.213L206.493 214c-.73 2.218-.972 5.611-.915 9.497.167 12.473 3.422 30.048 3.422 30.048z"/>
        <path fill="#000" fill-rule="nonzero" d="M206.087 223.447c-7.317 1.695-23.422 6.673-29.61 18.686-4.126 8-7.598 11.43-10.02 12.867l-2.457-.173c.016-.05.03-.1.04-.15l2.216-.577 4.758-19.136L207 214c-.723 2.197-.97 5.577-.913 9.447zM80.953 229L90 233.866c-.908.205-2.07.992-3.362 2.134-.754-1.973-5.487-4.728-7.638-5.903A31.97 31.97 0 0 1 80.953 229zM163 254.52a.87.87 0 0 1-1-.14 3.47 3.47 0 0 0 1 .14z" opacity=".1"/>
        <path fill="#FF748E" fill-rule="nonzero" d="M181.291 170.741s-7.588.836-12.926-4.753c0 0-22.455 6.431-30.06 20.96-7.607 14.53-59.305 43.04-59.305 43.04s8.994 5.028 8.147 7.542l34-19.564s12.09-8.66 15.447-10.618c3.357-1.958 21.92-13.974 25.852 18.722 3.933 32.696 0 28.784 0 28.784s5.62 1.959 13.767-13.693c8.147-15.652 33.43-19.283 33.43-19.283l1.404-16.483s5.015-10.927 1.152-15.463a9.714 9.714 0 0 1-2.252-4.73c-.639-4.187 0-11.162 8.948-16.958C232.662 159.298 238 152.036 238 152.036s.281-5.314-8.148-7.828c-8.43-2.515-42.705-16.208-42.705-16.208l-1.152 4.753 27.044 18.986s-13.484 10.881-24.182 10.618c0 0 1.986 8.103-7.566 8.384z"/>
        <path fill="#000" fill-rule="nonzero" d="M186 156.829a53.777 53.777 0 0 1-1.575-6.829l-15.08 3.913c.664 2.828.545 5.78-.345 8.547 6.304 1.653 13.002-.566 17-5.631z" opacity=".1"/>
        <circle cx="174" cy="146" r="16" fill="#FFBDC6" fill-rule="nonzero"/>
        <path fill="#000" fill-rule="nonzero" d="M182.847 110.131c4.472.502 8.718 2.415 13.12 3.458 1.1.342 2.272.388 3.395.132 1.709-.53 3.099-2.305 4.872-2.253 1.089 0 2.056.772 2.954 1.481a35.709 35.709 0 0 1 4.055 3.596c3.035 3.279 4.918 7.692 7.687 11.26 2.769 3.566 7.137 6.338 11.07 4.701-2.676 10.372-11.44 18.272-20.924 18.918-3.782.253-7.658-.53-11.319.576-.912.369-1.875.602-2.856.691-2.108 0-3.805-1.924-5.12-3.797-3.082-4.402-5.52-9.404-8.99-13.42-1.16-1.326-2.498-2.588-4.12-2.83-1.621-.242-3.11.525-4.553 1.268-2.38 1.228-4.813 2.501-6.661 4.61-1.848 2.109-3.013 5.244-2.248 8.067.411 1.533 1.35 2.916 1.367 4.518.035 2.552-2.236 4.425-2.682 6.914a25.84 25.84 0 0 0-.11 3.147c-.197 3.41-2.439 6.205-4.779 8.349-.915.836-1.923 1.729-2.19 3.02-.18.875 0 1.809-.116 2.696-.341 2.213-2.56 3.336-4.524 3.63a13.232 13.232 0 0 1-6.789-.8c2.746-1.297 4.437-4.968 3.8-8.264-.875-4.563-5.486-7.836-5.092-12.486a14.47 14.47 0 0 1 1.275-4.109 37.335 37.335 0 0 0 2.178-7.779c.347-2.063.515-4.247-.133-6.206-.58-1.792-1.79-3.21-2.816-4.72a26.718 26.718 0 0 1-3.261-6.649 4.588 4.588 0 0 1-.313-2.195 4.514 4.514 0 0 1 1.42-2.305c2.52-2.633 5.213-5.376 8.59-6.125 1.611-.271 3.25-.335 4.878-.19 2.83.09 5.662-.029 8.474-.358 2.318-.27 6.234-.23 8.197-1.728 1.83-1.4 2.862-3.147 5.115-4.034a15.031 15.031 0 0 1 7.149-.784zM192 275s9.283 18.357 6.469 24M208.81 324l-13.698-17.214v.3s-.79-5.573 1.819-3.702c5.715 4.1 14.858 10.818 15.056 11.975.197 1.157-1.853 5.78-3.178 8.641z" opacity=".1"/>
        <g fill="#000" fill-rule="nonzero" opacity=".1">
            <path d="M188.652 161.732s1.146 4.73-2.546 7.095c5.675-.97 5.928-5.396 5.733-7.319-1.054.17-2.12.244-3.187.224zM82.365 228.39s51.464-28.568 59.042-43.13c5.417-10.452 18.475-16.72 25.41-19.43-5.055 1.722-22.091 8.214-28.489 20.55-7.549 14.562-59.041 43.135-59.041 43.135l3.078-1.125zM198.672 159.505c8.758-2.726 17.127-9.534 17.127-9.534l-26.872-19.056.613-2.606-2.574-1.033-1.117 4.764 26.855 19.045a64.871 64.871 0 0 1-14.032 8.42zM198.826 224.05a66.736 66.736 0 0 1 10.525-2.663l.045-.54a71.295 71.295 0 0 0-10.57 3.203zM166.279 253.393h-.247a.504.504 0 0 1-.573-.08c.186.054.38.08.573.08.917-.534 2.293-4.718-.573-28.93-3.084-25.829-15.219-23.814-21.857-20.84 6.787-1.872 16.125-.253 18.779 21.96 2.895 24.21 1.513 28.395.573 28.93a6.191 6.191 0 0 0 3.325-1.12zM162.954 254.518a2.01 2.01 0 0 1-.573-.08.504.504 0 0 0 .573.08z"/>
        </g>
        <path fill="#474463" fill-rule="nonzero" d="M182.846 109.121c4.472.508 8.718 2.415 13.121 3.458 1.1.34 2.272.385 3.395.127 1.709-.524 3.099-2.305 4.871-2.253 1.09.034 2.057.772 2.955 1.48a36.278 36.278 0 0 1 4.055 3.597c3.035 3.28 4.918 7.694 7.687 11.262 2.769 3.567 7.137 6.34 11.07 4.702-2.676 10.374-11.44 18.276-20.924 18.921-3.782.26-7.658-.524-11.319.577a9.849 9.849 0 0 1-2.856.691c-2.108 0-3.806-1.925-5.12-3.798-3.083-4.403-5.521-9.4-8.991-13.417-1.159-1.331-2.497-2.593-4.119-2.835-1.622-.242-3.11.53-4.553 1.273-2.381 1.228-4.814 2.496-6.662 4.611-1.848 2.115-3.012 5.239-2.248 8.069.412 1.533 1.35 2.916 1.368 4.518.034 2.559-2.236 4.426-2.682 6.916a25.803 25.803 0 0 0-.11 3.147c-.198 3.412-2.44 6.201-4.78 8.35-.915.83-1.923 1.73-2.19 3.015-.179.882 0 1.81-.115 2.703-.342 2.213-2.56 3.337-4.524 3.625a13.113 13.113 0 0 1-6.79-.801c2.746-1.291 4.438-4.968 3.8-8.259-.874-4.564-5.485-7.844-5.091-12.489.216-1.425.646-2.81 1.274-4.11a37.496 37.496 0 0 0 2.178-7.785c.348-2.058.516-4.242-.133-6.207-.58-1.787-1.79-3.21-2.815-4.72a26.783 26.783 0 0 1-3.262-6.645 4.652 4.652 0 0 1-.313-2.202 4.538 4.538 0 0 1 1.42-2.277c2.52-2.633 5.213-5.37 8.59-6.126a19.435 19.435 0 0 1 4.878-.184c2.83.088 5.663-.031 8.475-.358 2.317-.27 6.233-.236 8.197-1.729 1.83-1.394 2.861-3.146 5.115-4.034a15.134 15.134 0 0 1 7.148-.813z"/>
        <circle cx="289" cy="222" r="32" fill="#FFF" fill-rule="nonzero"/>
        <path fill="#3ACC6C" fill-rule="nonzero" d="M325 224a36 36 0 1 1-36-36c19.882 0 36 16.118 36 36zm-40.122 19.292l26.447-26.987a2.37 2.37 0 0 0 .675-1.66 2.37 2.37 0 0 0-.675-1.66l-3.254-3.296a2.27 2.27 0 0 0-1.625-.689 2.27 2.27 0 0 0-1.625.689l-21.57 22.01-10.071-10.301a2.275 2.275 0 0 0-3.255 0l-3.254 3.34a2.389 2.389 0 0 0 0 3.32l14.953 15.253a2.275 2.275 0 0 0 1.627.689c.61 0 1.196-.248 1.627-.689v-.02z"/>
        <text fill="#FFF" font-family="IndianRupee-Regular, Indian Rupee" font-size="20">
            <tspan x="237" y="304">`</tspan> <tspan x="251.395" y="304" font-family="Montserrat-Bold, Montserrat" font-weight="bold">2,00,000</tspan>
        </text>
        <text fill="#FFF" font-family="Montserrat-SemiBold, Montserrat" font-size="13" font-weight="500">
            <tspan x="235" y="279">Congratulations</tspan>
        </text>
        <text fill="#FFF" font-family="Montserrat-SemiBold, Montserrat" font-size="13" font-weight="500">
            <tspan x="257" y="333">Approved</tspan>
        </text>
    </g>
</svg>
